<svg width="32" height="32" viewBox="0 0 60 60" fill="none" xmlns="http://www.w3.org/2000/svg">
  <g fill="none" stroke="#5DCAA5" opacity="0.28">
    <ellipse cx="30" cy="30" rx="25" ry="10" transform="rotate(0,30,30)" stroke-width="0.9"/>
    <ellipse cx="30" cy="30" rx="25" ry="10" transform="rotate(60,30,30)" stroke-width="0.9"/>
    <ellipse cx="30" cy="30" rx="25" ry="10" transform="rotate(120,30,30)" stroke-width="0.9"/>
  </g>
  <g fill="#5DCAA5" opacity="0.45">
    <circle cx="5" cy="30" r="1.5"/><circle cx="55" cy="30" r="1.5"/>
    <circle cx="17.5" cy="8.5" r="1.5"/><circle cx="42.5" cy="51.5" r="1.5"/>
  </g>
  <path d="M12,12 C14,24 24,46 48,48 C46,36 36,14 12,12Z" fill="#1D9E75"/>
  <path d="M48,12 C48,24 36,46 12,48 C14,36 24,14 48,12Z" fill="#5DCAA5"/>
  <circle cx="30" cy="30" r="7" fill="white"/>
</svg>
